<?xml version="1.0" encoding="UTF-8"?>
<svg id="Layer_1" data-name="Layer 1" xmlns="http://www.w3.org/2000/svg" version="1.1" viewBox="0 0 32 40">
  <defs>
    <style>
      .cls-1 {
        fill: #000;
        stroke-width: 0px;
      }
    </style>
  </defs>
  <path class="cls-1" d="M28.7,17c-.8.7-2.1.6-2.8-.2,0,0,0,0,0,0l-7.9-9.4v21.6c0,1.1-.9,2-2,2s-2-.9-2-2V7.4l-7.9,9.3c-.7.9-2,1-2.8.3-.9-.7-1-2-.3-2.8h0L12.9,2.5c1.5-1.7,4-1.9,5.8-.5.2.1.3.3.5.5l9.9,11.7c.7.8.6,2.1-.2,2.8,0,0,0,0,0,0Z"/>
</svg>