<?xml version="1.0" encoding="UTF-8"?>
<svg id="Layer_1" data-name="Layer 1" xmlns="http://www.w3.org/2000/svg" viewBox="0 0 648 467">
  <defs>
    <style>
      .cls-1 {
        fill: #000;
      }

      .cls-1, .cls-2 {
        stroke-width: 0px;
      }

      .cls-2 {
        fill: #fff;
      }
    </style>
  </defs>
  <path class="cls-1" d="M88.06,226.47c-12.19,2.81-23,.88-31.04-9.92-4.23-5.68-5.77-12.02-2.6-18.26,3.51-6.89,7.51-13.8,12.6-19.55,8.14-9.19,22.91-10.64,36.25-5.03,12.03,5.06,19.4,14.22,23.63,26.22,2.26,6.4,4.39,12.85,6.71,19.65,15.43-4.29,30.74-8.55,45.57-12.67-4.35-6.74-9.31-12.83-12.53-19.72-7.94-17.02-4.28-31.46,10.63-42.85,14.7-11.24,31.09-17.41,49.94-13.34,16.99,3.67,35.3,20.55,33.78,42.5-.07.94.12,1.9.24,3.57,18.49-7.09,36.56-14.03,54.55-20.93-4.73-9.83-9.65-19.05-13.68-28.63-7.42-17.65-4.07-26.59,12.92-35.45,12.65-6.6,26.09-9.93,40.48-8.43,10.5,1.09,18.26,6.84,20.37,15.04,2.96,11.52.01,20.05-9.8,26.4-5.27,3.41-11.05,6.04-16.89,9.17,4.83,6.55,9.89,13.08,14.58,19.87,2.92,4.22,5.55,8.69,7.81,13.3,4.49,9.15,1.71,17.83-7.85,21.85-8.24,3.46-17.07,5.54-25.68,8.1-13.22,3.92-26.47,7.73-40.14,11.7.5.96.73,1.72,1.2,2.28,9.03,10.67,17.99,21.41,27.25,31.87,1.13,1.28,4.07,1.76,5.97,1.43,17.53-3.1,34.96-6.75,52.52-9.58,6.67-1.08,13.64-.84,20.43-.5,9.82.49,15.59,4.58,17.3,14.23,1.71,9.71,1.81,19.77,1.8,29.68,0,6.74-1.43,13.48-2.18,19.96,6.37,1.9,12.82,3.14,18.63,5.78,4.54,2.07,9.07,5.24,12.22,9.05,7.25,8.77,3.79,19.4-7.02,22.95-19.28,6.33-38.63,12.49-57.95,18.71-5.54,1.79-11.25,3.18-16.59,5.43-4.88,2.05-7.52.09-9.76-3.76-4.39-7.54-4.85-15.85-4.21-24.18.65-8.44,2.04-16.82,2.97-25.24.42-3.79.75-7.62.65-11.42-.09-3.53-2.32-5.06-5.79-4.21-25.04,6.13-50.14,12.03-75.08,18.55-15.93,4.17-31.61,9.24-47.38,13.99-2.03.61-3.92,1.67-7.1,3.07,3.65,5.54,6.51,10.96,10.39,15.53,7.42,8.75,15.43,17,23.16,25.48,6.51,7.14,11.63,14.98,12.23,25.65-1.37.48-3.01,1.11-4.68,1.65-20.11,6.5-40.17,13.15-60.36,19.37-5.66,1.74-11.69,2.7-17.61,3.13-6.53.47-10.93-3.18-13.33-9.25-5.47-13.84-.6-27.34,13.27-36.47,2.2-1.45,4.54-2.69,6.79-4.01-6.38-6.57-13.22-12.49-18.64-19.5-5.62-7.27-11.03-15.13-14.46-23.57-4.72-11.61,1.51-22.62,13.42-27.04,16.19-6.01,32.37-12.05,49.68-18.51-8.09-7.86-16.2-14.82-23.15-22.78-5.64-6.46-10.21-7.21-18.44-3.84-15.61,6.4-31.88,11.64-48.32,15.48-18.87,4.41-27.49-.28-36.72-17.42-4.15-7.71-7.18-16.01-10.94-24.57ZM332.31,161.1c-1.57.76-2.87,1.5-4.24,2.03-19.74,7.55-39.38,15.35-59.28,22.46-7.64,2.73-13.68,6.12-15.75,14.52-.5,2.04-1.86,3.88-2.87,5.79-1.7,3.22-3.86,5.75-7.88,3.58-4.08-2.2-3.31-5.27-1.64-8.9,3.04-6.62,6.33-13.27,8.2-20.26,4.46-16.64-3.74-31.48-19.93-37.48-15.66-5.81-39.8,1.62-50.54,15.39-5.35,6.86-5.86,14.23-3.03,22.11,3.02,8.41,8.2,15.3,15.61,20.2,6.65,4.39,13.67,8.23,20.62,12.13,3.18,1.79,5.11,3.97,3.31,7.59-1.91,3.84-4.98,3.81-8.42,1.93-3.94-2.16-7.88-4.35-11.96-6.22-1.47-.67-3.5-.96-5.04-.54-14.14,3.81-28.22,7.84-42.34,11.74-7.12,1.97-14.28,3.81-20.99,5.59-3.93-11.63-7.51-22.49-11.26-33.29-4.49-12.93-15.02-16.98-27.36-17.84-6.39-.45-11.72,2.12-15.45,7.49-1.99,2.86-4.03,5.72-5.76,8.74-4.83,8.45-.36,17.71,9.45,18.6,4.28.39,8.8-1,13.12-1.99,2.5-.57,4.82-1.96,6.54-2.69,4.01,10.92,7.19,21.81,11.93,31.97,7.29,15.63,13.41,18.72,29.82,13.72,18.57-5.67,36.67-12.86,54.86-19.69,3.46-1.3,5.48-1.17,8.15,1.56,13.4,13.67,27.05,27.09,40.6,40.62,1.2,1.2,2.3,2.51,3.72,4.07-1.92.83-3.11,1.4-4.34,1.86-19.97,7.41-39.94,14.82-59.91,22.21-7.63,2.83-9.97,7.57-7.2,15.24.95,2.63,2.12,5.36,3.87,7.49,6.13,7.42,12.21,14.93,18.95,21.78,6.83,6.94,14.43,13.12,21.52,19.49-7.78,3.24-15.55,6.05-22.92,9.69-5.72,2.83-9.69,7.63-10.33,14.37-.88,9.25,2.56,12.27,11.52,10.27,1.3-.29,2.6-.59,3.87-.99,19.35-6.15,38.7-12.32,58.04-18.51.41-.13.69-.63,1.32-1.22-1.76-2.45-3.3-5.02-5.25-7.22-6.08-6.84-12.73-13.21-18.38-20.38-6.54-8.3-13.06-16.81-18.08-26.05-3.94-7.27-1.41-12.59,6.27-15.63,11.12-4.39,22.38-8.65,33.93-11.66,31.55-8.22,63.29-15.74,94.95-23.57,12.14-3,21.71,6.02,20.02,18.44-1.72,12.66-3.19,25.37-4.11,38.1-.32,4.4,1.35,8.94,2.14,13.58,5.06-2,9.03-3.74,13.11-5.14,19.35-6.67,38.73-13.24,58.09-19.87,4.73-1.62,5.2-3.16,2.2-7.14-3.65-4.84-8.9-7.02-14.59-7.84-6.54-.95-13.18-1.25-20.25-1.87.87-5.22,1.84-10.4,2.59-15.62,1.95-13.5,3.99-27,1.62-40.67-.84-4.84-3.5-7.86-8.6-8.12-3.65-.18-7.41-.67-10.95-.05-21.62,3.78-43.22,7.72-64.76,11.93-3.24.63-5.18.31-7.27-2.21-8.18-9.86-16.55-19.57-24.84-29.33-6.01-7.08-12.02-14.16-18.33-21.59,1.57-.59,2.59-1.06,3.66-1.38,24.42-7.19,48.85-14.35,73.28-21.54,8.03-2.37,9.37-4.83,4.79-11.61-8.18-12.12-16.97-23.82-25.51-35.7-1.2-1.66-2.44-3.29-3.88-5.22,3.49-1.13,6.28-1.76,8.85-2.9,7.42-3.31,14.95-6.46,22.06-10.36,5.01-2.75,4.76-8.05,3.81-12.94-.95-4.9-4.41-7.38-9.21-7.69-3.63-.23-7.33-.15-10.95.25-10.67,1.19-21.09,3.44-30.21,9.48-6.13,4.06-7.47,7.31-4.99,13.96,2.6,6.98,5.7,13.82,9.15,20.43,3.98,7.62,8.6,14.92,13.05,22.54Z"/>
  <path class="cls-1" d="M207.42,111.56c-2.53.35-5.75.79-9.69,1.33-.08-13.38,3.19-25.45,7.8-38.02,3.54,2.08,6.43,3.79,8.74,5.15-2.33,10.75-4.53,20.87-6.85,31.54Z"/>
  <path class="cls-1" d="M248.93,91.83c-6.03,8.55-11.67,16.54-17.75,25.16-1.83-.51-4.95-1.38-8.4-2.33,2.88-12.56,10.25-21.57,19.94-29.69,2.38,2.63,4.66,5.15,6.21,6.86Z"/>
  <path class="cls-1" d="M163.36,105.42c4.64-1.29,7.65-2.13,10.58-2.95,3.12,6.88,6.1,13.45,9.36,20.65-2.23,1.64-4.86,3.57-8.72,6.4-3.76-8.07-7.31-15.69-11.23-24.1Z"/>
  <path class="cls-1" d="M279.72,117.12c-11.91,11.63-15.93,12.92-25.36,7.9,4.11-8.09,13.4-9.91,19.05-16.55,2.29,3.14,4.22,5.79,6.31,8.65Z"/>
  <path class="cls-1" d="M141.84,137.02c2.23-2.13,4.59-4.37,7.27-6.93,3.52,4.08,7.05,8.18,10.71,12.42-1.59,1.58-3.91,3.88-6.19,6.14-3.87-3.82-7.71-7.61-11.79-11.63Z"/>
  <path class="cls-2" d="M332.31,161.1c-4.45-7.63-9.06-14.92-13.05-22.54-3.45-6.6-6.55-13.45-9.15-20.43-2.47-6.64-1.14-9.89,4.99-13.96,9.12-6.04,19.53-8.3,30.21-9.48,3.62-.4,7.31-.48,10.95-.25,4.79.31,8.26,2.79,9.21,7.69.95,4.89,1.2,10.19-3.81,12.94-7.11,3.9-14.63,7.06-22.06,10.36-2.56,1.14-5.35,1.78-8.85,2.9,1.44,1.93,2.68,3.56,3.88,5.22,8.54,11.87,17.33,23.58,25.51,35.7,4.58,6.78,3.24,9.24-4.79,11.61-24.42,7.19-48.85,14.35-73.28,21.54-1.07.32-2.1.78-3.66,1.38,6.3,7.43,12.31,14.51,18.33,21.59,8.3,9.77,16.66,19.48,24.84,29.33,2.09,2.52,4.02,2.85,7.27,2.21,21.54-4.21,43.14-8.15,64.76-11.93,3.54-.62,7.3-.14,10.95.05,5.11.26,7.76,3.28,8.6,8.12,2.37,13.67.33,27.17-1.62,40.67-.75,5.22-1.72,10.4-2.59,15.62,7.07.62,13.7.93,20.25,1.87,5.69.82,10.94,3.01,14.59,7.84,3,3.98,2.53,5.52-2.2,7.14-19.36,6.63-38.74,13.2-58.09,19.87-4.08,1.41-8.04,3.15-13.11,5.14-.79-4.63-2.46-9.18-2.14-13.58.92-12.73,2.39-25.44,4.11-38.1,1.69-12.43-7.88-21.45-20.02-18.44-31.66,7.83-63.39,15.35-94.95,23.57-11.55,3.01-22.81,7.27-33.93,11.66-7.68,3.03-10.22,8.36-6.27,15.63,5.02,9.24,11.53,17.75,18.08,26.05,5.65,7.17,12.31,13.54,18.38,20.38,1.96,2.2,3.49,4.78,5.25,7.22-.63.6-.92,1.09-1.32,1.22-19.34,6.19-38.69,12.36-58.04,18.51-1.27.4-2.57.7-3.87.99-8.97,2-12.4-1.01-11.52-10.27.64-6.74,4.61-11.54,10.33-14.37,7.36-3.64,15.14-6.45,22.92-9.69-7.09-6.36-14.68-12.55-21.52-19.49-6.74-6.85-12.83-14.36-18.95-21.78-1.75-2.13-2.92-4.86-3.87-7.49-2.77-7.67-.43-12.41,7.2-15.24,19.97-7.4,39.94-14.8,59.91-22.21,1.23-.46,2.42-1.03,4.34-1.86-1.42-1.56-2.52-2.86-3.72-4.07-13.55-13.52-27.2-26.95-40.6-40.62-2.67-2.73-4.7-2.86-8.15-1.56-18.19,6.83-36.3,14.03-54.86,19.69-16.41,5.01-22.52,1.91-29.82-13.72-4.74-10.16-7.92-21.05-11.93-31.97-1.72.73-4.03,2.11-6.54,2.69-4.32.99-8.83,2.38-13.12,1.99-9.81-.9-14.28-10.15-9.45-18.6,1.73-3.02,3.77-5.88,5.76-8.74,3.73-5.37,9.06-7.94,15.45-7.49,12.34.86,22.87,4.91,27.36,17.84,3.75,10.8,7.33,21.66,11.26,33.29,6.71-1.78,13.87-3.62,20.99-5.59,14.12-3.9,28.2-7.94,42.34-11.74,1.54-.41,3.57-.13,5.04.54,4.08,1.87,8.02,4.06,11.96,6.22,3.44,1.88,6.51,1.91,8.42-1.93,1.8-3.62-.13-5.8-3.31-7.59-6.96-3.9-13.98-7.74-20.62-12.13-7.42-4.89-12.6-11.78-15.61-20.2-2.83-7.89-2.32-15.25,3.03-22.11,10.75-13.77,34.88-21.2,50.54-15.39,16.19,6,24.39,20.84,19.93,37.48-1.87,6.99-5.16,13.64-8.2,20.26-1.67,3.63-2.44,6.7,1.64,8.9,4.01,2.16,6.18-.37,7.88-3.58,1.01-1.91,2.37-3.75,2.87-5.79,2.06-8.4,8.11-11.79,15.75-14.52,19.9-7.11,39.54-14.91,59.28-22.46,1.38-.53,2.67-1.27,4.24-2.03Z"/>
</svg>