<?xml version="1.0" encoding="UTF-8"?>
<svg id="Layer_1" data-name="Layer 1" xmlns="http://www.w3.org/2000/svg" viewBox="0 0 648 467">
  <defs>
    <style>
      .cls-1 {
        fill: #0b0b06;
      }

      .cls-1, .cls-2 {
        stroke-width: 0px;
      }

      .cls-2 {
        fill: #f9ed00;
      }
    </style>
  </defs>
  <path class="cls-1" d="M273.34,213.78c-8.19-.78-15.33-1.26-22.4-2.2-4.46-.6-7.11.75-9.01,4.93-4.04,8.93-8.57,17.63-12.73,26.51-1.72,3.67-3.77,4.57-7.82,3.2-11.36-3.83-22.56-7.95-33.15-13.61-6.84-3.65-8.81-7.02-7.22-12.42,1.63-5.54,6.5-8.39,13.43-7.73,4.36.42,8.45,1.99,12.3,3.89,3.76,1.85,5.2.62,6.36-2.94,1.48-4.58,3.49-8.98,5.15-13.51,1.92-5.24,5.49-7.91,11.11-8.52,6.81-.75,13.63-.67,20.45-.79,4.09-.07,5.09-1.57,3.14-5.2-1.1-2.04-2.34-4.13-2.83-6.35-1.78-8.1-6.96-9.78-14.58-9.53-11.13.37-22.3-.28-33.44-.75-6.43-.27-7.2-1.29-7-7.57.16-5.15.53-10.3.71-15.46.1-2.6-.63-4.52-3.25-6.09-4.9-2.95-5.01-8.31-.73-12.03,3.95-3.44,17.38-4.18,21.52-1.18,1.52,1.1,1.61,2.79,1.92,4.43q2.84,15.18,17.94,14.76c3.83-.11,7.67-.38,11.48-.2,4.14.19,3.95-1.28,2.26-4.23-5.52-9.67-10.9-19.42-16.28-29.16-3.64-6.59-3.55-6.83,2.56-11.14,10.93-7.7,11.45-7.58,19.52,3.26,3.98,5.34,8.12,10.55,12.16,15.84.4.52.56,1.23,1.17,2.62,1.5-3.14.78-4.78.34-6.45-1.68-6.43-3.29-12.87-5.01-19.29-1.12-4.18.19-6.64,4.5-7.77,3.69-.97,7.35-2.18,10.84-3.72,3.92-1.73,5.96-.3,7.2,3.34,2.37,6.92,4.85,13.79,7.11,20.75,1.09,3.35,2.19,4.6,5.08,1.39,1.99-2.21,4.35-4.12,6.72-5.96,3.75-2.91,5.39-2.18,6.04,2.63.25,1.8.15,3.65.18,5.48.03,1.64,0,3.28,0,5.38,4.7-2.34,9.02-4.68,13.5-6.63,1.7-.74,3.94-2.06,5.65-.42,1.86,1.79.53,4.03-.19,6-1.84,5.04-4.38,9.7-7.94,13.75-1.74,1.98-2.4,3.95-.39,6.13.11.12.17.29.25.43q9.68,16.35,34.66,18.74c3.15.3,6.29.62,9.43,1.03,5.25.67,6.66,2.29,5.86,7.67-.78,5.25-1.7,10.55-3.26,15.6-1.44,4.66-.02,7.22,4.14,9.11,2.58,1.17,4.81,2.99,6.57,5.27,4.37,5.67,2.44,12.2-4.45,14.1-8.65,2.38-17.16.07-25.61-1.61-2.45-.49-3.01-2.87-3.38-5.07-1-5.9-2.09-11.79-2.93-17.71-.38-2.65-1.4-4.12-4.19-4.68-4.29-.88-8.63-.56-12.92-.98-2.92-.29-2.05,2.06-2.11,3.44-.29,6.82-.64,13.6-2.31,20.29-3.17,12.72-10.22,22.33-22.32,27.65-5.35,2.35-6.84,5.72-6.06,11.33,1.08,7.73,1.34,15.58,2,23.37.34,4.01-1.12,6-5.43,6.59-10.26,1.41-20.47,2.73-30.78.84-4.6-.84-9.62-1.49-10.3-7.52-.51-4.51,4.08-9.41,9.73-11.35,2.49-.86,6.56.53,7.19-2.63.41-2.07-2.04-4.7-3.22-7.08-6.28-12.7-9.1-10.18,3.91-22.11,2.79-2.56,5.64-5.04,9.13-8.16ZM318.7,120.25c-4.38,2.69-8.74,5.42-13.16,8.04-1.8,1.07-3.85,3.26-5.81,1.84-2.07-1.5-.28-3.96.2-6,.7-3.01,2.61-5.75,2.16-9.46-3.81,2.53-5.66,6.43-8.68,9.18-1.17,1.06-2.01,3-4.03,2.26-1.74-.63-2.09-2.33-2.53-4.01-2.19-8.36-4.44-16.71-6.83-25.01-.75-2.6-1.36-6-5.59-4.04-3.21,1.49-7.68,1.42-5.86,7.51,3.47,11.62,6.3,23.44,9.24,35.21.52,2.07,1.85,4.79-1.21,6.13-2.74,1.2-3.8-1.3-5.06-2.93-8.36-10.79-16.82-21.5-24.92-32.48-2.96-4.02-5.37-1.56-8.06-.28-3.35,1.59-1.61,3.78-.52,5.77,6.35,11.51,12.62,23.05,20.89,33.37,3.7,4.61,3.17,5.91-2.96,6.54-12.42,1.26-24.88,1.95-37.38,1.92-3.98-.01-5.72-1.69-6.49-5.28-.94-4.39-2.13-8.72-3.08-13.1-.44-2.02-1.41-3.47-3.5-3.64-2.6-.21-5.45-1.13-7.66.9-1.51,1.38-1.27,3.43.72,4,5.23,1.49,4.95,5.34,4.74,9.44-.2,3.82.1,7.67-.22,11.48-.34,4.07,1.26,5.75,5.28,5.86,12.98.37,25.95,1.17,38.93,1.24,4.74.03,6.91,1.73,8.25,6.01,1.94,6.18,4.19,12.27,6.59,18.29,2.56,6.43,2.25,7.13-4.87,7.53-7.15.41-14.3.75-21.45,1.04-5.38.22-9.02,2.43-10.81,7.82-2.04,6.15-4.72,12.08-6.87,18.19-1.18,3.37-2.97,3.97-6.04,2.48-3.29-1.6-6.69-2.95-10.02-4.46-2.78-1.26-5.69-1.86-8.72-1.62-1.68.14-3.38.54-3.96,2.46-.51,1.66.38,2.93,1.51,3.96.98.89,2.03,1.76,3.17,2.4,7.86,4.41,16.18,7.74,24.76,10.47,3.71,1.18,5.74-.06,7.32-3.64,3.75-8.51,7.55-17.01,11.99-25.22,1.99-3.69,4.46-5.36,8.72-5.02,11.45.92,22.92,1.54,34.37,2.37,1.74.13,4.01-.05,4.68,2.11.64,2.08-1.18,3.28-2.5,4.51-5.59,5.23-11.12,10.52-16.85,15.59-2.28,2.02-2.48,3.98-1.33,6.57,2.56,5.78,4.92,11.65,7.51,17.41,1.46,3.24.68,4.64-2.92,4.56-4.02-.08-8.01.32-11.79,1.76-3.66,1.4-3.96,3.78-.91,6.21,1.47,1.17,3.24,1.61,5.02,2.09,5.98,1.61,11.92.26,17.87-.11,6.26-.38,6.69-1.03,5.78-7.37-.97-6.75-2.05-13.49-2.75-20.27-.92-8.8-.85-8.97,7.3-12.74,13.07-6.05,21.08-15.91,23.29-30.22.91-5.92,1.53-11.87.89-17.9-.71-6.7.42-8.1,7.15-8.11,6.66,0,13.23,1.24,19.82,2.14,4.42.61,6.39,2.91,6.99,7.04.81,5.59,1.71,11.18,2.63,16.75.35,2.13.64,4.6,3.18,5.19,4.7,1.09,9.5,2.04,14.3.68,3.43-.97,3.89-2.98,1.05-5.23-2.32-1.85-4.91-3.53-7.64-4.66-3.91-1.62-4.66-4.29-3.81-7.99,1.12-4.86,2.34-9.7,3.25-14.6,1.19-6.4-.19-8-6.81-8.5-3.82-.29-7.73-1.16-11.44-.66-17.11,2.3-25.37-7.76-31.62-21.46-1.8-3.94-1.54-6.78,1.06-10,2.48-3.07,5.22-6.03,6.5-9.91.21-.19.62-.53.6-.55-.41-.58-.75-.35-1.03.14Z"/>
  <path class="cls-2" d="M319.13,120.66c-1.29,3.88-4.02,6.84-6.51,9.91-2.6,3.22-2.86,6.06-1.06,10,6.25,13.69,14.51,23.76,31.62,21.46,3.72-.5,7.63.37,11.44.66,6.62.5,8,2.11,6.81,8.5-.91,4.9-2.13,9.74-3.25,14.6-.85,3.69-.1,6.37,3.81,7.99,2.73,1.13,5.32,2.81,7.64,4.66,2.84,2.26,2.38,4.26-1.05,5.23-4.81,1.36-9.6.41-14.3-.68-2.54-.59-2.82-3.06-3.18-5.19-.93-5.58-1.82-11.16-2.63-16.75-.6-4.13-2.57-6.44-6.99-7.04-6.59-.9-13.16-2.15-19.82-2.14-6.74,0-7.86,1.41-7.15,8.11.64,6.03.02,11.98-.89,17.9-2.21,14.31-10.22,24.17-23.29,30.22-8.15,3.77-8.22,3.94-7.3,12.74.71,6.78,1.79,13.52,2.75,20.27.91,6.34.48,6.99-5.78,7.37-5.95.37-11.89,1.72-17.87.11-1.78-.48-3.55-.92-5.02-2.09-3.05-2.42-2.75-4.81.91-6.21,3.78-1.44,7.77-1.84,11.79-1.76,3.61.08,4.38-1.32,2.92-4.56-2.59-5.76-4.95-11.63-7.51-17.41-1.15-2.59-.95-4.55,1.33-6.57,5.73-5.07,11.26-10.37,16.85-15.59,1.32-1.23,3.14-2.44,2.5-4.51-.66-2.15-2.93-1.98-4.68-2.11-11.45-.83-22.92-1.46-34.37-2.37-4.26-.34-6.73,1.33-8.72,5.02-4.43,8.21-8.23,16.71-11.99,25.22-1.58,3.58-3.61,4.82-7.32,3.64-8.58-2.73-16.9-6.06-24.76-10.47-1.15-.64-2.2-1.51-3.17-2.4-1.14-1.04-2.02-2.3-1.51-3.96.59-1.93,2.29-2.33,3.96-2.46,3.03-.25,5.94.35,8.72,1.62,3.33,1.51,6.73,2.87,10.02,4.46,3.06,1.49,4.85.89,6.04-2.48,2.14-6.11,4.83-12.05,6.87-18.19,1.79-5.39,5.43-7.61,10.81-7.82,7.15-.29,14.3-.63,21.45-1.04,7.12-.4,7.43-1.11,4.87-7.53-2.4-6.02-4.65-12.11-6.59-18.29-1.34-4.28-3.51-5.99-8.25-6.01-12.98-.07-25.95-.86-38.93-1.24-4.02-.12-5.62-1.8-5.28-5.86.32-3.81.02-7.66.22-11.48.21-4.1.49-7.96-4.74-9.44-1.99-.57-2.23-2.62-.72-4,2.21-2.03,5.07-1.11,7.66-.9,2.09.17,3.06,1.62,3.5,3.64.95,4.38,2.14,8.72,3.08,13.1.77,3.59,2.52,5.27,6.49,5.28,12.5.04,24.96-.66,37.38-1.92,6.12-.62,6.65-1.92,2.96-6.54-8.27-10.32-14.55-21.86-20.89-33.37-1.1-1.99-2.83-4.18.52-5.77,2.69-1.28,5.1-3.73,8.06.28,8.1,10.98,16.56,21.69,24.92,32.48,1.26,1.63,2.32,4.12,5.06,2.93,3.07-1.34,1.73-4.06,1.21-6.13-2.94-11.77-5.77-23.59-9.24-35.21-1.82-6.08,2.65-6.02,5.86-7.51,4.23-1.96,4.84,1.43,5.59,4.04,2.39,8.3,4.64,16.65,6.83,25.01.44,1.68.8,3.38,2.53,4.01,2.03.74,2.87-1.2,4.03-2.26,3.02-2.75,4.87-6.65,8.68-9.18.45,3.71-1.46,6.45-2.16,9.46-.47,2.04-2.27,4.5-.2,6,1.96,1.42,4.01-.77,5.81-1.84,4.42-2.62,8.77-5.35,13.16-8.04.14.14.29.27.43.41Z"/>
  <path class="cls-2" d="M318.7,120.25c.29-.49.63-.72,1.03-.14.02.03-.39.36-.6.56-.14-.14-.29-.28-.43-.41Z"/>
</svg>