<?xml version="1.0" encoding="UTF-8"?>
<svg id="Layer_1" data-name="Layer 1" xmlns="http://www.w3.org/2000/svg" viewBox="0 0 573 233">
  <defs>
    <style>
      .cls-1 {
        fill: #000;
        stroke-width: 0px;
      }
    </style>
  </defs>
  <path class="cls-1" d="M405.67,125.2c3.9-6.31,7.85-12.58,11.68-18.92,4.21-6.97,8.22-14.06,12.52-20.96,1.95-3.13,5.26-5.87,8.71-3.94,2.59,1.45,4.95,5.07,5.46,8.05.76,4.47-.21,9.23-.4,13.87-.06,1.51-.01,3.02-.01,4.53l1.61.83c1.9-2.26,3.76-4.55,5.7-6.77.98-1.13,2.04-2.21,3.15-3.2,3.64-3.23,7.71-5.68,12.7-3.71,4.7,1.86,5.17,6.57,6,10.78.34,1.74.06,3.61.06,4.74,6.33,1.23,12.07,2.87,17.91,3.33,6.25.49,12.58-.11,18.88-.28,6.64-.18,13.32-1.03,19.9-.5,8.99.73,14.8,7.6,15.62,16.65,1.4,15.59-2.4,30.13-9.02,44-6.52,13.67-13.53,27.11-20.23,40.69-1.51,3.07-3.74,3.54-6.6,2.44-2.97-1.15-5.74-2.81-4.34-6.58,1.2-3.25,2.93-6.33,4.68-9.34,9.75-16.74,18.74-33.82,22.64-53.03,1.12-5.53,1.82-11.18,2.33-16.8.55-6.08-2.23-9.34-8.45-8.92-7.27.5-14.49,1.89-21.68,3.18-6.75,1.21-13.25,1.29-19.39-2.25-3.39-1.95-5.68.17-7.89,2.26-8.62,8.17-14.55,6.55-18.2-5.03-.49-1.56-.92-3.15-1.77-6.07-2.83,3.14-5.24,5.52-7.3,8.16-2.65,3.41-4.67,7.36-7.58,10.5-5.72,6.17-13.16,4.16-15.47-3.8-.56-1.91-1.64-3.67-3.11-6.87-3.08,4.52-5.32,7.74-7.48,11.01-2.66,4.04-5.01,8.86-10.85,8.19-6.41-.73-11.05-4.17-13.26-10.58-1.16-3.38-2.77-6.61-4.49-10.63-3.28,3-5.66,5.56-8.42,7.62-3.97,2.97-7.89,6.39-12.4,8.17-11.4,4.5-24.17-4.97-23.62-17.18,1.32-29.31,16.39-50.76,39.44-67.28,7.2-5.16,18.59.46,20.34,9.22.9,4.47,2.48,8.79,3.52,13.24.32,1.36-.13,2.92-.29,4.37-1.52,13.53-3.13,27.05-4.47,40.59-.19,1.87.94,3.88,1.47,5.82.8.13,1.59.26,2.39.39ZM392.32,72c-.73-1.14-1.54-3.59-3.21-4.6-1-.6-3.73.62-5.04,1.75-14.64,12.64-23.58,28.64-27.25,47.57-.4,2.06.2,4.31.33,6.46,2.63-.37,5.9.12,7.8-1.26,16.51-12.01,24.09-29.16,27.36-49.93Z"/>
  <path class="cls-1" d="M112.22,131.29c3.5,4.17,8.08,4.5,11.95-.29,3.33-4.12,5.95-8.82,8.98-13.19,2.65-3.83,5.19-7.77,8.21-11.28,3.57-4.16,7.56-3.94,10.76.55,2.1,2.94,3.77,6.25,5.25,9.56,2.94,6.58,7.81,7.67,12.49,2.17,4.1-4.83,7.51-10.18,7.49-16.95-.01-4.09-1.64-6.14-6.07-5.84-3.63.25-7.59.75-10.86-.41-2.87-1.01-6.13-3.74-7.16-6.48-1.58-4.24,2.48-7.45,6.9-6.1,7.41,2.26,14.18,0,20.71-3.09,1.34-.63,2.25-2.76,2.8-4.39,2.91-8.5,5.56-17.08,8.5-25.57.86-2.49,2.31-4.79,3.58-7.13,1.38-2.54,2.79-5.24,6.47-3.47,3.25,1.56,4.73,4.04,3.81,7.72-2.19,8.71-5.1,17.33-6.37,26.17-2.13,14.75-9.56,28.01-11.14,42.84-.71,6.67.26,12.81,4.99,19.08,1.54-2.33,2.92-3.91,3.75-5.74,7.32-16.04,14.55-32.12,21.8-48.19,1.23-2.73,2.25-5.58,3.73-8.17,2.71-4.71,9.06-4.79,11.07.18,1.42,3.51,1.94,7.79,1.47,11.56-.7,5.57-2.72,10.96-4.02,16.46-.75,3.18-.28,5.15,4.01,4.44,1.8-.3,4.82.74,5.76,2.17,4.92,7.48,9.36,15.28,13.97,22.97,1.61,2.68,1.56,5.7-1.28,6.84-2.18.88-5.71.74-7.58-.51-2.29-1.54-3.51-4.69-5.12-7.2-1.3-2.02-2.48-4.12-4.39-7.32-2.06,3.25-3.46,5.38-4.79,7.55-2.42,3.97-4.41,8.27-7.29,11.86-3.82,4.76-7.37,4.23-10.74-.88-1.33-2.02-2.65-4.04-4.41-6.71-2.52,3.51-4.49,6.36-6.57,9.11-5.25,6.94-11.13,7.59-17.18,1.29-3.53-3.68-6.17-8.21-9.53-12.78-12.34,7.97-21.51.19-30.86-7.67-2.36,2.98-4.25,5.71-6.48,8.12-3.37,3.65-6.63,7.56-10.58,10.48-6.17,4.55-13.24,4.14-19.44-.36-3.48-2.52-6.54-4.6-11.28-2.05-3.39,1.83-10.43-3.15-10.25-7.12.08-1.8,2.24-4.5,4.01-5.05,4.73-1.48,6.09-4.13,5.78-8.89-.73-11.29.69-22.4,6.01-32.51,2.59-4.93,6.23-9.4,9.88-13.66,2.15-2.51,4.7-5.71,8.88-3.92,4.6,1.97,8.2,5.45,7.85,10.56-.54,7.89-.92,16.15-3.57,23.46-3.47,9.57-9.09,18.37-13.92,27.77ZM109.39,104.37c.59.26,1.17.52,1.76.78,1.71-3.93,3.41-7.86,5.12-11.8-.5-.22-1-.44-1.5-.66l-5.38,11.68Z"/>
  <path class="cls-1" d="M321.2,98.57c-8.65.65-16.42,1.02-24.11,2.01-1.57.2-3.34,2.52-4.16,4.26-5.92,12.48-8.47,25.85-10.19,39.45-.32,2.57,1.15,6.92-3.32,7.18-4.37.25-4.28-4.1-4.99-6.93-2.35-9.37-.17-18.46,2-27.58,2.1-8.87,3.7-17.87,5.52-26.81.1-.49.02-1.06.26-1.46,7.83-13.47,7.21-28.42,7.64-43.19.06-2.15.24-4.35.81-6.41,1.65-5.94,4.98-7.01,9.2-2.42,2.16,2.35,4.17,6.17,3.93,9.14-.82,10.23-2.45,20.42-4.16,30.55-1.76,10.46-1.49,11.02,9.15,10.84,2.32-.04,4.68-.18,6.95-.61,6.73-1.29,11.4-3.86,12.96-11.93,3.17-16.47,7.77-32.66,11.74-48.97.35-1.44.41-2.97.53-4.46.25-3.07-.49-6.66,4.67-6.23,5.17.43,9.1,3.81,8.45,8.42-.91,6.41-2.13,12.81-3.69,19.1-6.13,24.7-12.57,49.33-18.64,74.05-1.86,7.58-3.02,15.34-4.27,23.06-.56,3.47-2.04,5.68-5.73,5.51-3.82-.17-3.93-3.31-3.77-5.9.68-11.26,1.59-22.51,2.45-33.77.14-1.8.41-3.59.79-6.89Z"/>
  <path class="cls-1" d="M85.16,143.83c-8.68-.18-13.84-4.35-19.38-8.02-8.71-5.76-17.51-11.48-26.76-16.28-7.25-3.76-9.26-2.27-9.21,5.86.04,6.69,1,13.37,1.61,20.82-1.96,1.29-6.48.25-8.28-3.78-1.6-3.57-2.7-7.53-3.12-11.42-.51-4.77.22-9.67-.12-14.47-.26-3.64-1.58-7.19-2.02-10.83-.28-2.29-.75-5.65.49-6.84,5.52-5.34,6.01-12.05,6.28-18.89.33-8.32.31-16.66.74-24.98.08-1.66,1.51-4.64,2.24-4.61,2.07.07,5.34.88,5.9,2.29,1.67,4.21,2.98,8.82,3.12,13.31.17,5.44-1.11,10.91-1.52,16.38-.18,2.39.24,4.83.45,8.18,3.06-1.4,5.48-2.08,7.42-3.45,13.64-9.59,24.92-21.15,29.47-37.78,1.05-3.84,2.87-4.78,6.4-3.96,3.53.83,6.3,2.71,5.03,6.53-2.29,6.89-4.44,14.04-8.13,20.19-8.16,13.59-20.41,23.11-34.03,30.91-1.53.88-3.06,1.76-5.44,3.14,6.3,3.5,11.9,6.65,17.54,9.72,10.28,5.6,20.22,11.7,27.9,20.74,1.49,1.75,2.06,4.27,3.43,7.24Z"/>
  <path class="cls-1" d="M142.92,63.1c-6.07.14-10.54-4.15-9-8.9.42-1.29,1.89-2.8,3.16-3.15,3.55-.98,10.72,2.72,12.44,5.98,1.64,3.12-1.43,5.94-6.6,6.06Z"/>
  <path class="cls-1" d="M502.15,71.68c-.33,2.52-.63,5.64-4.76,5.73-4.39.09-7.62-3.04-7.62-7.37,0-2.99.43-5.82,4.35-5.89,4.44-.09,7.99,3.06,8.03,7.54Z"/>
</svg>